<!DOCTYPE svg PUBLIC "-//W3C//DTD SVG 1.1//EN" "http://www.w3.org/Graphics/SVG/1.1/DTD/svg11.dtd">
<!-- Uploaded to: SVG Repo, www.svgrepo.com, Transformed by: SVG Repo Mixer Tools -->
<svg height="64px" width="64px" version="1.1" id="Layer_1" xmlns="http://www.w3.org/2000/svg" xmlns:xlink="http://www.w3.org/1999/xlink" viewBox="0 0 512 512" xml:space="preserve" fill="#021a35" stroke="#021a35" transform="rotate(0)">
<g id="SVGRepo_bgCarrier" stroke-width="0"/>
<g id="SVGRepo_tracerCarrier" stroke-linecap="round" stroke-linejoin="round" stroke="#CCCCCC" stroke-width="1.024"/>
<g id="SVGRepo_iconCarrier"> <circle style="fill:#021a35;" cx="256" cy="256" r="256"/> <path style="fill:#021a35;" d="M276.058,109.468l-46.752,272.105l114.862,114.838c73.988-27.143,131.953-87.469,155.889-162.945 L276.058,109.468z"/> <path style="fill:#FFFFFF;" d="M325.191,342.525c0,0-8.695,10.006-25.221,10.006c-16.522,0-23.911-10.006-23.911-24.786v-83.773 h53.426v-50.767h-53.426v-83.735H235.83c-6.289,37.574-31.063,68.87-64.671,84.228v50.274h39.241v96.468 c0,13.391,12.61,62.093,76.964,62.093c37.828,0,53.479-24.352,53.479-24.352L325.191,342.525z"/> <path style="fill:#ffffff;" d="M325.191,342.525c0,0-8.695,10.006-25.221,10.006c-16.522,0-23.911-10.006-23.911-24.786v-83.771 h53.426v-50.767h-53.426v-83.737h-21.783v287.723c9.126,3.31,20.025,5.341,33.087,5.341c37.828,0,53.479-24.352,53.479-24.352 L325.191,342.525z"/> </g>
</svg>