<!DOCTYPE svg PUBLIC "-//W3C//DTD SVG 1.1//EN" "http://www.w3.org/Graphics/SVG/1.1/DTD/svg11.dtd">
<!-- Uploaded to: SVG Repo, www.svgrepo.com, Transformed by: SVG Repo Mixer Tools -->
<svg fill="#a6a6a6" width="800px" height="800px" viewBox="-10 -10 120.00 120.00" version="1.1" xml:space="preserve" xmlns="http://www.w3.org/2000/svg" xmlns:xlink="http://www.w3.org/1999/xlink" stroke="#a6a6a6" stroke-width="0.001">
<g id="SVGRepo_bgCarrier" stroke-width="0"/>
<g id="SVGRepo_tracerCarrier" stroke-linecap="round" stroke-linejoin="round" stroke="#CCCCCC" stroke-width="0.4"/>
<g id="SVGRepo_iconCarrier"> <g id="store"/> <g id="groceries"/> <g id="fruits"> <path d="M95,45h-2.1c0.1-0.7,0.1-1.3,0.1-2c0-9.1-6.4-15.6-16-16.8c0.4-4.4,4-5.2,4.2-5.2c0.3-0.1,0.6-0.3,0.7-0.5 c0.1-0.3,0.1-0.6,0-0.9l-2-4c-0.2-0.4-0.7-0.6-1.2-0.5c-3.6,1-5.4,3.8-6.2,6.6c-0.4-0.8-1-1.7-1.7-2.4c-3-3-7.6-3.1-7.8-3.1 c-0.3,0-0.5,0.1-0.7,0.3c-0.2,0.2-0.3,0.5-0.3,0.7c0,0.2,0.1,4.8,3.1,7.8c0.9,0.8,1.8,1.5,2.8,1.9c-2.2,0.6-4.2,1.5-5.9,2.7 c-2.6-1.8-5.6-2.9-9-3.3c0.4-4.4,4-5.2,4.2-5.2c0.3-0.1,0.6-0.3,0.7-0.5c0.1-0.3,0.1-0.6,0-0.9l-2-4c-0.2-0.4-0.7-0.6-1.2-0.5 c-3.6,1-5.4,3.8-6.2,6.6c-0.4-0.8-1-1.7-1.7-2.4c-3-3-7.6-3.1-7.8-3.1c-0.3,0-0.5,0.1-0.7,0.3c-0.2,0.2-0.3,0.5-0.3,0.7 c0,0.2,0.1,4.8,3.1,7.8c0.9,0.9,1.8,1.5,2.8,1.9c-2.2,0.6-4.2,1.5-5.9,2.7c-2.5-1.7-5.6-2.9-9-3.3c0.4-4.4,4-5.2,4.2-5.2 c0.3-0.1,0.6-0.3,0.7-0.5c0.1-0.3,0.1-0.6,0-0.9l-2-4c-0.2-0.4-0.7-0.6-1.2-0.5c-3.6,1-5.4,3.8-6.2,6.6c-0.4-0.8-1-1.7-1.7-2.4 c-3-3-7.6-3.1-7.8-3.1c-0.3,0-0.5,0.1-0.7,0.3c-0.2,0.2-0.3,0.5-0.3,0.7c0,0.2,0.1,4.8,3.1,7.8c0.8,0.8,1.8,1.4,2.8,1.9 C12.1,28.8,7,34.9,7,43c0,0.7,0,1.3,0.1,2H5c-0.6,0-1,0.4-1,1v6c0,0.6,0.4,1,1,1h1.1l3.5,22.7c0.8,5.4,5.4,9.3,10.9,9.3h58.9 c5.5,0,10-3.9,10.9-9.3L93.9,53H95c0.6,0,1-0.4,1-1v-6C96,45.4,95.6,45,95,45z M91,43c0,0.7-0.1,1.3-0.1,2h-22 c0.1-0.7,0.1-1.3,0.1-2c0-4.9-1.9-9.2-5.3-12.2C66.5,29,70.1,28,74,28C84,28,91,34.2,91,43z M33.1,45c-0.1-0.7-0.1-1.3-0.1-2 c0-4.7,2-8.8,5.6-11.5c3-2.3,7.1-3.5,11.4-3.5s8.4,1.2,11.4,3.5C65,34.2,67,38.3,67,43c0,0.7-0.1,1.3-0.1,2H33.1z M78.5,17.2 l1.1,2.2c-1.9,0.8-4.2,2.8-4.5,6.6c-0.3,0-0.7,0-1,0c0,0,0,0,0,0C73.9,24,74.3,19,78.5,17.2z M64.1,18.2c1.4,0.2,3.6,0.8,5.2,2.4 c1.6,1.6,2.2,3.9,2.4,5.2c-1.4-0.2-3.6-0.8-5.2-2.4C64.9,21.9,64.3,19.6,64.1,18.2z M54.5,17.2l1.1,2.2c-1.9,0.8-4.2,2.8-4.5,6.6 c-0.3,0-0.7,0-1,0c0,0,0,0,0,0C49.9,24,50.3,19,54.5,17.2z M40.1,18.2c1.4,0.2,3.6,0.8,5.2,2.4c1.6,1.6,2.2,3.9,2.4,5.2 c-1.4-0.2-3.6-0.8-5.2-2.4C40.9,21.9,40.3,19.6,40.1,18.2z M30.5,17.2l1.1,2.2c-1.9,0.8-4.2,2.8-4.5,6.6c-0.3,0-0.7,0-1,0 c0,0,0,0,0,0C25.9,24,26.3,19,30.5,17.2z M16.1,18.2c1.4,0.2,3.6,0.8,5.2,2.4c1.6,1.6,2.2,3.9,2.4,5.2c-1.4-0.2-3.6-0.8-5.2-2.4 C16.9,21.9,16.3,19.6,16.1,18.2z M9,43c0-8.8,7-15,17-15c3.9,0,7.5,1,10.3,2.8C32.9,33.8,31,38.1,31,43c0,0.7,0,1.3,0.1,2h-22 C9.1,44.3,9,43.7,9,43z M88.3,75.4c-0.7,4.4-4.4,7.6-8.9,7.6H20.6c-4.5,0-8.2-3.2-8.9-7.6L8.2,53h83.7L88.3,75.4z M94,51h-1H7H6v-4 h88V51z"/> </g> <g id="bakery"/> <g id="hygiene_product"/> <g id="detergent"/> <g id="cooking_oil"/> <g id="snacks"/> <g id="canned_food"/> <g id="wheat_flour"/> <g id="milk_powder"/> <g id="coffee_powder"/> <g id="tea_bag"/> <g id="meat"/> <g id="chicken"/> <g id="cart"/> <g id="sausage"/> <g id="egg"/> <g id="drink"/> <g id="vegetable"/> </g>
</svg>