<?xml version="1.0" encoding="iso-8859-1"?>
<!-- Uploaded to: SVG Repo, www.svgrepo.com, Generator: SVG Repo Mixer Tools -->
<svg height="800px" width="800px" version="1.1" id="Layer_1" xmlns="http://www.w3.org/2000/svg" xmlns:xlink="http://www.w3.org/1999/xlink" 
	 viewBox="0 0 511.988 511.988" xml:space="preserve">
<g>
	<path style="fill:#7F4545;" d="M138.605,26.67c0,5.891-4.772,10.664-10.663,10.664s-10.664-4.773-10.664-10.664
		c0-5.89,4.773-10.671,10.664-10.671S138.605,20.78,138.605,26.67z"/>
	<path style="fill:#7F4545;" d="M159.832,26.67c0,5.891-4.781,10.664-10.672,10.664s-10.664-4.773-10.664-10.664
		c0-5.89,4.773-10.671,10.664-10.671S159.832,20.78,159.832,26.67z"/>
	<path style="fill:#7F4545;" d="M181.16,26.67c0,5.891-4.773,10.664-10.664,10.664s-10.664-4.773-10.664-10.664
		c0-5.89,4.773-10.671,10.664-10.671S181.16,20.78,181.16,26.67z"/>
</g>
<path style="fill:#965353;" d="M149.332,26.67c83.943,0,149.316,63.999,149.316,181.325c0,117.341-23.249,181.34-149.316,181.34
	C23.257,389.335,0,346.663,0,207.995C0,69.334,65.381,26.67,149.332,26.67z"/>
<g style="opacity:0.1;">
	<path d="M21.335,207.995c0-132.107,59.343-177.075,137.552-181.036c-3.156-0.188-6.344-0.289-9.555-0.289
		C65.381,26.67,0,69.334,0,207.995c0,138.668,23.257,181.34,149.332,181.34c3.227,0,6.367-0.062,9.469-0.141
		C43.116,386.475,21.335,342.195,21.335,207.995z"/>
</g>
<g>
	<path style="fill:#A85D5D;" d="M223.995,335.992c0,5.906-4.773,10.671-10.664,10.671s-10.672-4.765-10.672-10.671
		c0-5.891,4.781-10.656,10.672-10.656S223.995,330.101,223.995,335.992z"/>
	<path style="fill:#A85D5D;" d="M95.997,79.997c0,5.89-4.772,10.671-10.663,10.671s-10.672-4.781-10.672-10.671
		c0-5.891,4.781-10.664,10.672-10.664S95.997,74.107,95.997,79.997z"/>
	<path style="fill:#A85D5D;" d="M159.996,79.997c0,5.89-4.773,10.671-10.664,10.671s-10.672-4.781-10.672-10.671
		c0-5.891,4.781-10.664,10.672-10.664S159.996,74.107,159.996,79.997z"/>
	<path style="fill:#A85D5D;" d="M223.995,79.997c0,5.89-4.773,10.671-10.664,10.671s-10.672-4.781-10.672-10.671
		c0-5.891,4.781-10.664,10.672-10.664S223.995,74.107,223.995,79.997z"/>
	<path style="fill:#A85D5D;" d="M63.943,143.996c0,5.891-4.773,10.672-10.664,10.672c-5.898,0-10.671-4.781-10.671-10.672
		s4.772-10.664,10.671-10.664C59.17,133.332,63.943,138.105,63.943,143.996z"/>
	<path style="fill:#A85D5D;" d="M127.942,143.996c0,5.891-4.773,10.672-10.664,10.672s-10.672-4.781-10.672-10.672
		s4.781-10.664,10.672-10.664S127.942,138.105,127.942,143.996z"/>
	<path style="fill:#A85D5D;" d="M191.94,143.996c0,5.891-4.773,10.672-10.663,10.672c-5.891,0-10.672-4.781-10.672-10.672
		s4.781-10.664,10.672-10.664C187.167,133.332,191.94,138.105,191.94,143.996z"/>
	<path style="fill:#A85D5D;" d="M255.994,143.996c0,5.891-4.773,10.672-10.664,10.672s-10.672-4.781-10.672-10.672
		s4.781-10.664,10.672-10.664S255.994,138.105,255.994,143.996z"/>
	<path style="fill:#A85D5D;" d="M95.997,207.995c0,5.898-4.772,10.671-10.663,10.671s-10.672-4.773-10.672-10.671
		c0-5.891,4.781-10.664,10.672-10.664S95.997,202.104,95.997,207.995z"/>
	<path style="fill:#A85D5D;" d="M159.996,207.995c0,5.898-4.773,10.671-10.664,10.671s-10.672-4.773-10.672-10.671
		c0-5.891,4.781-10.664,10.672-10.664S159.996,202.104,159.996,207.995z"/>
	<path style="fill:#A85D5D;" d="M223.995,207.995c0,5.898-4.773,10.671-10.664,10.671s-10.672-4.773-10.672-10.671
		c0-5.891,4.781-10.664,10.672-10.664S223.995,202.104,223.995,207.995z"/>
	<path style="fill:#A85D5D;" d="M63.943,271.993c0,5.906-4.773,10.672-10.664,10.672c-5.898,0-10.671-4.766-10.671-10.672
		c0-5.891,4.772-10.664,10.671-10.664C59.17,261.329,63.943,266.102,63.943,271.993z"/>
	<path style="fill:#A85D5D;" d="M127.942,271.993c0,5.906-4.773,10.672-10.664,10.672s-10.672-4.766-10.672-10.672
		c0-5.891,4.781-10.664,10.672-10.664S127.942,266.102,127.942,271.993z"/>
	<path style="fill:#A85D5D;" d="M191.94,271.993c0,5.906-4.773,10.672-10.663,10.672c-5.891,0-10.672-4.766-10.672-10.672
		c0-5.891,4.781-10.664,10.672-10.664C187.167,261.329,191.94,266.102,191.94,271.993z"/>
	<path style="fill:#A85D5D;" d="M255.994,271.993c0,5.906-4.773,10.672-10.664,10.672s-10.672-4.766-10.672-10.672
		c0-5.891,4.781-10.664,10.672-10.664S255.994,266.102,255.994,271.993z"/>
	<path style="fill:#A85D5D;" d="M95.997,335.992c0,5.906-4.772,10.671-10.663,10.671s-10.672-4.765-10.672-10.671
		c0-5.891,4.781-10.656,10.672-10.656S95.997,330.101,95.997,335.992z"/>
	<path style="fill:#A85D5D;" d="M159.996,335.992c0,5.906-4.773,10.671-10.664,10.671s-10.672-4.765-10.672-10.671
		c0-5.891,4.781-10.656,10.672-10.656S159.996,330.101,159.996,335.992z"/>
</g>
<path style="fill:#8CC153;" d="M362.648,485.333c-76.452,0-138.653-62.218-138.653-138.67c0-76.459,62.201-138.66,138.653-138.66
	c76.467,0,138.684,62.201,138.684,138.66C501.332,423.115,439.115,485.333,362.648,485.333z"/>
<path style="fill:#A85D5D;" d="M362.648,197.331c-82.468,0-149.317,66.857-149.317,149.332c0,82.483,66.85,149.326,149.317,149.326
	c82.482,0,149.34-66.843,149.34-149.326C511.988,264.188,445.131,197.331,362.648,197.331z M453.178,437.177
	c-24.188,24.172-56.328,37.484-90.529,37.484c-34.188,0-66.312-13.312-90.498-37.484c-24.172-24.187-37.492-56.326-37.492-90.514
	c0-34.187,13.32-66.326,37.492-90.505c24.187-24.179,56.311-37.491,90.498-37.491c34.201,0,66.342,13.312,90.529,37.491
	c24.155,24.179,37.467,56.319,37.467,90.505C490.644,380.85,477.333,412.99,453.178,437.177z"/>
<path style="opacity:0.2;fill:#FFFFFF;enable-background:new    ;" d="M362.648,197.331c-7.234,0-14.344,0.531-21.312,1.523
	c72.357,10.351,127.997,72.584,127.997,147.809c0,75.233-55.64,137.451-127.997,147.795c6.969,1,14.078,1.531,21.312,1.531
	c82.482,0,149.34-66.843,149.34-149.326C511.988,264.188,445.131,197.331,362.648,197.331z"/>
<path style="fill:#E6E9ED;" d="M346.773,397.522c-0.328-0.031-0.875-0.203-1.156-0.375l-5.875-5.953
	c-3.156-3.188-8.344-6.953-12.344-8.969l-7.484-3.75c-0.25-0.234-0.578-0.672-0.719-0.984l-1.266-8.281
	c-0.656-4.422-2.641-10.531-4.703-14.5l-3.859-7.438c-0.062-0.328-0.062-0.891,0-1.218l3.859-7.438
	c2.062-3.969,4.047-10.078,4.703-14.5l1.266-8.281c0.141-0.312,0.469-0.75,0.719-0.984l7.484-3.749
	c4-2.016,9.188-5.781,12.344-8.969l5.875-5.953c0.281-0.156,0.828-0.344,1.156-0.375l8.25,1.359
	c2.734,0.453,5.656,0.547,7.625,0.547c1.984,0,4.905-0.094,7.624-0.547l8.281-1.359c0.312,0.031,0.859,0.219,1.156,0.375
	l5.875,5.953c3.141,3.188,8.343,6.953,12.343,8.969l7.469,3.749c0.25,0.234,0.594,0.688,0.719,0.984l1.266,8.281
	c0.672,4.438,2.641,10.531,4.703,14.5l3.859,7.438c0.062,0.327,0.062,0.89,0,1.218l-3.859,7.438
	c-2.062,3.969-4.031,10.078-4.703,14.5l-1.266,8.281c-0.125,0.297-0.469,0.75-0.719,0.984l-7.469,3.75
	c-4.016,2.016-9.202,5.781-12.343,8.969l-5.875,5.953c-0.297,0.156-0.844,0.344-1.156,0.375l-8.266-1.359
	c-2.734-0.453-5.655-0.547-7.64-0.547c-1.969,0-4.891,0.094-7.625,0.547L346.773,397.522z"/>
<g>
	<path style="fill:#434A54;" d="M373.335,271.993c0,5.906-4.781,10.672-10.687,10.672c-5.875,0-10.656-4.766-10.656-10.672
		c0-5.883,4.781-10.664,10.656-10.664C368.554,261.329,373.335,266.11,373.335,271.993z"/>
	<path style="fill:#434A54;" d="M343.148,252.064c1.812,5.608-1.25,11.624-6.859,13.444s-11.609-1.25-13.438-6.852
		c-1.828-5.601,1.234-11.616,6.844-13.437S341.32,246.463,343.148,252.064z"/>
	<path style="fill:#434A54;" d="M402.459,434.677c1.828,5.594-1.234,11.609-6.844,13.438c-5.594,1.812-11.624-1.25-13.437-6.859
		c-1.813-5.609,1.25-11.608,6.843-13.437C394.631,425.99,400.646,429.053,402.459,434.677z"/>
	<path style="fill:#434A54;" d="M291.274,281.618c4.75,3.453,5.812,10.125,2.344,14.891c-3.453,4.766-10.125,5.828-14.891,2.359
		c-4.765-3.469-5.827-10.125-2.359-14.906C279.837,279.212,286.493,278.149,291.274,281.618z"/>
	<path style="fill:#434A54;" d="M446.584,394.46c4.781,3.469,5.828,10.125,2.375,14.905c-3.469,4.75-10.141,5.812-14.906,2.344
		c-4.766-3.452-5.812-10.124-2.359-14.89S441.834,390.991,446.584,394.46z"/>
	<path style="fill:#434A54;" d="M266.658,335.992c5.898,0,10.679,4.781,10.663,10.671c0.016,5.891-4.765,10.672-10.663,10.672
		c-5.891,0-10.664-4.781-10.664-10.672C255.994,340.773,260.767,335.992,266.658,335.992z"/>
	<path style="fill:#434A54;" d="M458.645,335.992c5.906,0,10.688,4.781,10.688,10.671c0,5.891-4.781,10.672-10.688,10.672
		c-5.874,0-10.655-4.781-10.655-10.672C447.99,340.773,452.771,335.992,458.645,335.992z"/>
	<path style="fill:#434A54;" d="M278.727,394.46c4.766-3.469,11.438-2.406,14.891,2.359c3.469,4.766,2.406,11.438-2.344,14.89
		c-4.781,3.469-11.438,2.406-14.906-2.344C272.9,404.585,273.963,397.929,278.727,394.46z"/>
	<path style="fill:#434A54;" d="M434.053,281.618c4.766-3.469,11.438-2.406,14.906,2.344c3.453,4.781,2.406,11.438-2.375,14.906
		c-4.75,3.469-11.438,2.406-14.891-2.359S429.287,285.071,434.053,281.618z"/>
	<path style="fill:#434A54;" d="M322.851,434.677c1.828-5.608,7.828-8.687,13.438-6.858s8.672,7.827,6.859,13.437
		c-1.844,5.609-7.844,8.672-13.453,6.859C324.086,446.286,321.023,440.27,322.851,434.677z"/>
	<path style="fill:#434A54;" d="M382.179,252.064c1.812-5.602,7.843-8.664,13.437-6.844c5.609,1.82,8.672,7.836,6.844,13.437
		c-1.812,5.602-7.828,8.672-13.438,6.852C383.429,263.688,380.366,257.673,382.179,252.064z"/>
	<path style="fill:#434A54;" d="M373.335,421.334c0,5.875-4.781,10.656-10.687,10.656c-5.875,0-10.656-4.781-10.656-10.656
		c0-5.906,4.781-10.672,10.656-10.672C368.554,410.662,373.335,415.428,373.335,421.334z"/>
	<path style="fill:#434A54;" d="M327.398,279.993c3.469,4.75,2.406,11.438-2.359,14.891c-4.766,3.469-11.438,2.406-14.891-2.359
		c-3.469-4.766-2.406-11.438,2.344-14.906C317.273,274.165,323.93,275.212,327.398,279.993z"/>
	<path style="fill:#434A54;" d="M415.178,400.804c3.469,4.75,2.406,11.437-2.375,14.89c-4.75,3.469-11.422,2.406-14.891-2.359
		c-3.453-4.765-2.406-11.437,2.359-14.905C405.037,394.975,411.709,396.022,415.178,400.804z"/>
	<path style="fill:#434A54;" d="M294.946,313.445c5.608,1.828,8.671,7.828,6.843,13.438s-7.827,8.672-13.437,6.859
		c-5.609-1.828-8.672-7.844-6.859-13.438C283.321,314.695,289.337,311.618,294.946,313.445z"/>
	<path style="fill:#434A54;" d="M436.959,359.585c5.609,1.828,8.672,7.844,6.844,13.438c-1.812,5.609-7.828,8.688-13.438,6.859
		c-5.594-1.828-8.656-7.844-6.844-13.453C425.334,360.835,431.365,357.772,436.959,359.585z"/>
	<path style="fill:#434A54;" d="M288.352,359.585c5.609-1.812,11.608,1.25,13.437,6.844c1.828,5.609-1.234,11.625-6.843,13.453
		c-5.609,1.828-11.625-1.25-13.453-6.859C279.681,367.429,282.743,361.413,288.352,359.585z"/>
	<path style="fill:#434A54;" d="M430.365,313.445c5.609-1.827,11.625,1.25,13.438,6.859c1.828,5.594-1.234,11.609-6.844,13.438
		c-5.594,1.812-11.625-1.25-13.438-6.859S424.771,315.273,430.365,313.445z"/>
	<path style="fill:#434A54;" d="M310.148,400.804c3.453-4.781,10.125-5.828,14.891-2.375c4.766,3.469,5.828,10.141,2.359,14.905
		c-3.469,4.766-10.125,5.828-14.906,2.375C307.742,412.24,306.68,405.569,310.148,400.804z"/>
	<path style="fill:#434A54;" d="M397.912,279.993c3.469-4.781,10.141-5.828,14.906-2.375c4.766,3.469,5.828,10.141,2.359,14.906
		s-10.141,5.828-14.906,2.375C395.506,291.431,394.459,284.759,397.912,279.993z"/>
</g>
</svg>